<svg width="187" height="82" fill="none" xmlns="http://www.w3.org/2000/svg"><path d="M10.042 32.422c-1.347 0-2.45.245-3.306.735-.98.49-1.715 1.102-2.327 1.959-.612.857-.98 1.714-1.347 2.816-.245 1.102-.367 2.204-.367 3.551 0 1.225.122 2.45.49 3.551.245 1.102.734 2.082 1.347 2.817.612.857 1.347 1.47 2.326 1.959.98.49 2.082.734 3.429.734 2.204 0 3.918-.612 5.02-1.836.612-.735 1.102-1.347 1.347-2.204.245-.735.367-1.592.367-2.572H9.674v-2.449h10.041v1.837c0 .612 0 1.224-.122 1.96-.123.611-.245 1.346-.49 1.958-.245.613-.49 1.225-.857 1.837-.367.612-.735 1.102-1.102 1.47-.857.857-1.837 1.469-2.939 1.959s-2.449.734-3.918.734c-1.715 0-3.306-.245-4.53-.857-1.225-.612-2.327-1.347-3.185-2.326-.857-.98-1.469-2.204-1.959-3.551a17.613 17.613 0 01-.612-4.53c0-1.593.245-3.185.612-4.531.368-1.347.98-2.572 1.837-3.674.857-.98 1.837-1.837 3.184-2.449 1.224-.612 2.816-.857 4.53-.857 2.45 0 4.53.612 6 1.714 1.47 1.102 2.572 2.572 3.061 4.408h-3.06c-.368-1.102-.98-1.959-2.082-2.694-1.102-1.102-2.45-1.469-4.041-1.469zm16.653 11.755v8.45h-2.817v-22.41h8.45c1.224 0 2.326.122 3.306.367s1.836.613 2.571 1.225c.735.49 1.225 1.224 1.592 2.204.367.857.612 1.96.612 3.306 0 .98-.122 1.714-.367 2.449-.245.735-.612 1.347-1.102 1.96-.49.489-.98.979-1.592 1.346-.612.367-1.224.612-1.96.857l4.654 8.94H36.98l-4.531-8.45h-5.755v-.245zm4.775-2.449c.858 0 1.592-.122 2.327-.245a5.408 5.408 0 001.96-.734 7.067 7.067 0 001.346-1.347c.367-.613.49-1.347.49-2.327 0-1.592-.49-2.694-1.47-3.428-.98-.613-2.326-.98-4.04-.98h-5.388v9.061h4.775zm28.653 10.898l-1.837-4.775H47.143l-1.836 4.775h-2.94l8.328-22.408h4.04l8.327 22.408h-2.939zm-7.347-20.081l-4.653 12.734h9.306l-4.653-12.735zm13.348 20.081V30.218h3.55L81.43 48.953V30.218h2.694v22.408h-3.429L68.94 34.014v18.612h-2.816zm23.51-22.408h7.959c1.714 0 3.306.245 4.53.857 1.347.49 2.449 1.347 3.307 2.327.857.98 1.591 2.204 1.959 3.55.489 1.348.612 2.94.612 4.531 0 1.715-.245 3.184-.735 4.531-.49 1.347-1.102 2.571-1.959 3.551s-1.959 1.714-3.306 2.327c-1.347.49-2.816.857-4.653.857h-7.96V30.218h.246zm2.816 2.449v17.388h5.02c1.102 0 2.204-.123 3.306-.49 1.102-.367 1.96-.98 2.694-1.837.735-.735 1.225-1.714 1.47-2.816.367-1.102.49-2.204.49-3.551s-.123-2.572-.49-3.551c-.368-.98-.735-1.96-1.47-2.694-.612-.735-1.469-1.347-2.449-1.837-.979-.49-2.081-.612-3.428-.612H92.45zm32.694 18c-.857.857-1.836 1.347-2.938 1.714-1.102.368-2.204.49-3.429.49-.857 0-1.837-.122-2.571-.367-.858-.245-1.592-.613-2.204-1.102a5.422 5.422 0 01-1.47-1.837c-.367-.735-.612-1.592-.612-2.694 0-1.47.367-2.694 1.224-3.674.858-.98 1.96-1.836 3.429-2.693-1.592-1.592-2.449-3.184-2.449-5.02 0-.98.122-1.715.49-2.45a6.154 6.154 0 011.224-1.714c.49-.49 1.102-.857 1.837-1.102.735-.245 1.469-.367 2.449-.367 1.469 0 2.816.49 3.796 1.347s1.469 2.081 1.469 3.673a5.08 5.08 0 01-.367 1.96c-.245.611-.612 1.101-.98 1.713l-1.469 1.47c-.612.49-1.224.857-1.837 1.102l4.776 5.633c.367-.49.612-1.102.857-1.837.245-.735.367-1.47.49-2.204h2.694c-.123 1.224-.368 2.326-.735 3.306s-.98 1.837-1.469 2.694l3.551 4.04h-3.674l-2.082-2.081zm-7.224-8.327c-.857.49-1.592 1.102-2.327 1.837-.612.735-.979 1.592-.979 2.694 0 .612.122 1.102.367 1.592s.612.857.98 1.102c.367.245.857.49 1.469.612.49.123 1.102.245 1.592.245a6.93 6.93 0 002.204-.367c.735-.245 1.469-.735 2.082-1.347l-5.388-6.368zm.857-2.938c.367-.245.735-.49 1.225-.735.489-.245.857-.612 1.224-.98.367-.367.612-.734.98-1.224.245-.367.367-.857.367-1.347 0-.857-.245-1.47-.735-1.96-.489-.49-1.224-.734-2.081-.734-.98 0-1.715.245-2.204.735-.49.49-.735 1.224-.735 2.081 0 .49.122.858.245 1.225.122.367.367.734.49 1.102.244.367.367.612.612.98.245.244.49.612.612.857zM3.92 72.463v8.449H1.103v-22.53h8.45c1.224 0 2.326.122 3.305.367.98.245 1.837.612 2.572 1.224.735.49 1.224 1.225 1.592 2.204.367.857.612 1.96.612 3.306 0 .98-.122 1.715-.367 2.45-.245.734-.613 1.346-1.102 1.959-.49.49-.98.98-1.592 1.347-.612.367-1.225.612-1.96.857l4.654 8.938h-3.062l-4.408-8.571H3.92zm4.775-2.571c.857 0 1.592-.123 2.327-.245a5.412 5.412 0 001.959-.735 7.02 7.02 0 001.347-1.347c.367-.612.49-1.347.49-2.326 0-1.592-.49-2.694-1.47-3.43-.98-.611-2.326-.979-4.04-.979H3.92v9.062h4.775zm22.653 11.265c-1.714 0-3.306-.245-4.653-.857-1.347-.612-2.45-1.347-3.306-2.45-.857-1.101-1.592-2.203-1.96-3.673-.49-1.347-.612-2.939-.612-4.53 0-1.592.245-3.184.613-4.53.49-1.348 1.102-2.572 1.959-3.674.857-1.102 1.959-1.837 3.306-2.45 1.347-.612 2.816-.857 4.653-.857 1.714 0 3.306.245 4.53.858 1.347.612 2.45 1.347 3.307 2.449.857.98 1.591 2.204 1.959 3.673.49 1.347.612 2.939.612 4.53 0 1.593-.245 3.184-.612 4.531-.49 1.347-1.102 2.572-1.96 3.674A9.718 9.718 0 0135.88 80.3c-1.225.49-2.817.857-4.531.857zm0-20.45c-1.347 0-2.45.246-3.429.736-.98.49-1.836 1.102-2.449 1.959-.612.857-1.102 1.837-1.47 2.816-.366 1.102-.489 2.204-.489 3.429 0 1.224.123 2.326.49 3.428.367 1.102.735 2.082 1.47 2.817.612.857 1.469 1.469 2.448 1.959.98.49 2.082.734 3.429.734s2.449-.244 3.428-.734c.98-.49 1.715-1.102 2.45-1.96.612-.857 1.102-1.714 1.346-2.816.368-1.102.49-2.204.49-3.428 0-1.225-.122-2.327-.49-3.429-.367-1.102-.734-2.082-1.469-2.816-.612-.857-1.47-1.47-2.449-1.96-.857-.49-1.96-.734-3.306-.734zm24.368 20.45c-1.714 0-3.306-.245-4.653-.857-1.347-.612-2.45-1.347-3.306-2.45-.857-1.101-1.592-2.203-1.96-3.673-.49-1.347-.612-2.939-.612-4.53 0-1.592.245-3.184.612-4.53.49-1.348 1.103-2.572 1.96-3.674.857-1.102 1.959-1.837 3.306-2.45 1.347-.612 2.816-.857 4.653-.857 1.714 0 3.306.245 4.53.858 1.347.612 2.45 1.347 3.307 2.449.857 1.102 1.591 2.204 1.959 3.673.49 1.347.612 2.939.612 4.53 0 1.593-.245 3.184-.612 4.531-.49 1.347-1.102 2.572-1.96 3.674-.856 1.102-1.959 1.837-3.306 2.449-1.346.49-2.816.857-4.53.857zm0-20.45c-1.347 0-2.45.246-3.429.736-.98.49-1.836 1.102-2.449 1.959-.612.857-1.102 1.837-1.469 2.816-.367 1.102-.49 2.204-.49 3.429 0 1.224.123 2.326.49 3.428.367 1.102.735 2.082 1.47 2.817.612.857 1.469 1.469 2.448 1.959.98.49 2.082.734 3.429.734s2.449-.244 3.428-.734c.98-.49 1.715-1.102 2.45-1.96.612-.857 1.102-1.714 1.346-2.816.368-1.102.49-2.204.49-3.428 0-1.225-.122-2.327-.49-3.429-.367-1.102-.734-2.082-1.469-2.816-.612-.857-1.47-1.47-2.449-1.96-.857-.49-2.082-.734-3.306-.734zm22.652.001c-.612 0-1.224 0-1.837.122-.612.123-1.102.245-1.591.613-.49.244-.858.612-1.225 1.102-.367.49-.49.98-.49 1.714 0 .857.245 1.47.613 2.081.49.49.98.858 1.592 1.225.49.245 1.101.367 1.591.49.612.122 1.102.245 1.715.367l1.836.367c.613.123 1.102.245 1.715.49 1.346.49 2.326 1.102 3.06 1.96.736.856 1.103 1.959 1.103 3.305 0 1.225-.245 2.327-.612 3.184-.49.857-.98 1.47-1.715 2.082-.734.49-1.592.857-2.571 1.102-.98.245-1.96.367-3.061.367-1.102 0-2.082-.122-3.061-.367a10.393 10.393 0 01-2.694-1.102c-.858-.49-1.47-1.102-2.082-1.96-.612-.734-.98-1.714-1.225-2.816h2.94c.244.735.489 1.347.979 1.837s.98.857 1.47 1.102c.612.245 1.224.49 1.836.612.612.123 1.347.123 1.96.123.611 0 1.224-.123 1.836-.245.612-.123 1.102-.367 1.592-.612s.857-.735 1.102-1.102c.245-.49.367-.98.367-1.715 0-.98-.245-1.714-.735-2.204-.49-.49-1.224-.857-2.081-1.102-.612-.245-1.225-.367-1.837-.49-.612-.122-1.347-.245-1.96-.367-.611-.122-1.346-.367-1.958-.49-.613-.245-1.225-.49-1.715-.734a4.323 4.323 0 01-2.081-1.837c-.613-.857-.857-1.837-.857-3.184 0-1.224.244-2.204.734-2.939a5.668 5.668 0 011.837-1.959c.735-.49 1.592-.857 2.449-1.102.98-.245 1.96-.367 2.939-.367.857 0 1.592.122 2.326.245.735.122 1.347.367 1.96.612.98.367 1.714 1.102 2.326 1.96.612.856.98 1.958 1.102 3.305h-2.694c-.122-.612-.245-1.224-.612-1.592-.367-.49-.735-.857-1.102-1.102-.49-.244-.98-.49-1.47-.612-.49-.367-1.101-.367-1.714-.367zm12.98-2.327h15.062v2.45H94.042v7.591h11.021v2.572h-11.02v7.347h12.367v2.449H91.348V58.38zm20.082 0l7.347 20.082 7.347-20.082h2.939l-8.205 22.531h-4.04l-8.449-22.408h3.061v-.123zm20.939 0h15.061v2.45h-12.368v7.591h11.021v2.572h-11.021v7.347h12.368v2.449h-15.061V58.38zm19.346 0h2.817v19.96h12.367v2.449h-15.061V58.38h-.123zm21.919 22.531v-19.96h-7.224v-2.448h17.143v2.449h-7.225v19.959h-2.694zM134.557 18.51l-.665 2.483 10.526 2.82.666-2.483-10.527-2.82zM154.171.8l-2.484.665 2.821 10.526 2.483-.665L154.171.8zm-16.667 11.486l-1.285 2.227 9.437 5.449 1.286-2.227-9.438-5.45zm4.46-5.238l-1.818 1.819 7.707 7.705 1.818-1.819-7.707-7.705zm5.739-3.961l-2.227 1.286 5.451 9.437 2.226-1.286-5.45-9.437zM161.021.218h-2.571v10.898h2.571V.218zm23.708 18.236l-10.527 2.82.666 2.484 10.526-2.82-.665-2.484zm-2.939-6.218l-9.438 5.45 1.286 2.227 9.438-5.45-1.286-2.226zM165.217.889l-2.83 10.524 2.483.668 2.83-10.525-2.483-.667zm6.513 2.216l-5.449 9.438 2.227 1.286 5.449-9.438-2.227-1.286zm5.628 3.925l-7.706 7.706 1.818 1.819 7.706-7.706-1.818-1.819zM164.95 41.088l-2.484.665 2.821 10.527 2.483-.666-2.82-10.526zm6.543-4.557l-1.818 1.818 7.706 7.706 1.818-1.818-7.706-7.706zm-10.472 5.442h-2.571v10.898h2.571V41.973zm7.505-2.755l-2.226 1.286 5.449 9.438 2.226-1.286-5.449-9.438zm5.077-6.126l-1.286 2.227 9.437 5.45 1.286-2.227-9.437-5.45zm12.398-7.772h-10.898v2.571h10.898V25.32zm-11.191 3.955l-.665 2.483 10.526 2.82.665-2.483-10.526-2.82zm-26.919 7.273l-7.707 7.706 1.818 1.819 7.707-7.706-1.818-1.819zm-2.179-3.365l-9.438 5.449 1.286 2.227 9.437-5.45-1.285-2.226zm-1.24-3.831l-10.527 2.82.666 2.484 10.526-2.82-.665-2.484zm-.226-4.032h-10.898v2.571h10.898V25.32zm10.207 15.825l-2.83 10.524 2.483.668 2.83-10.524-2.483-.668zm-3.591-1.852l-5.45 9.437 2.227 1.286 5.45-9.438-2.227-1.285zm9.425-17.891a5.748 5.748 0 00-5.755 5.755v3.428c0 .613.49 1.103 1.102 1.103h3.428a5.748 5.748 0 005.755-5.755v-3.43c0-.611-.489-1.101-1.102-1.101h-3.428zm1.959 7.714h-5.143v-5.143h5.143v5.143z" fill="#8A8A8A"/></svg>