<svg width="53" height="48" fill="none" xmlns="http://www.w3.org/2000/svg"><path d="M24.354 45.557l.006.004a3.798 3.798 0 003.949 0l.006-.004c10.22-6.282 15.95-12.595 19.12-18.095 3.176-5.508 3.734-10.119 3.734-12.911C51.17 7.328 45.26 1.5 38.002 1.5c-3.744 0-6.999 2.015-9.207 3.845a25.527 25.527 0 00-2.46 2.34 25.527 25.527 0 00-2.461-2.34C21.666 3.515 18.411 1.5 14.667 1.5 7.41 1.5 1.5 7.328 1.5 14.55c0 2.793.558 7.404 3.733 12.912 3.17 5.5 8.902 11.813 19.121 18.095z" stroke="#212121" stroke-width="3" stroke-linecap="round" stroke-linejoin="round"/></svg>