<svg width="54" height="54" fill="none" xmlns="http://www.w3.org/2000/svg"><path d="M53.246 27.027c0-14.497-11.753-26.25-26.25-26.25C12.498.777.746 12.53.746 27.027c0 14.498 11.752 26.25 26.25 26.25 14.497 0 26.25-11.752 26.25-26.25zM10.909 43.114a22.669 22.669 0 1132.107-32.01 22.669 22.669 0 01-32.107 32.01z" fill="#212121"/><path d="M24.905 9.39h3.78v4.69c2.03.233 3.676.957 4.936 2.17 1.283 1.19 1.983 2.858 2.1 5.005h-3.85c-.094-.7-.292-1.283-.595-1.75a3.528 3.528 0 00-1.155-1.12 4.471 4.471 0 00-1.61-.63 8.414 8.414 0 00-1.96-.21c-.467 0-.98.035-1.54.105-.56.07-1.062.222-1.505.455a3.017 3.017 0 00-1.155 1.015c-.304.42-.456.945-.456 1.575 0 .817.187 1.47.56 1.96.374.49.852.887 1.436 1.19a9.96 9.96 0 001.995.665c.746.14 1.481.28 2.204.42a35.58 35.58 0 013.256.735c1.003.28 1.866.677 2.59 1.19a5.43 5.43 0 011.75 1.96c.42.793.63 1.797.63 3.01 0 1.237-.21 2.31-.63 3.22a6.53 6.53 0 01-1.715 2.24c-.7.583-1.529 1.038-2.485 1.365a12.22 12.22 0 01-2.976.56v4.585h-3.745v-4.69a12.394 12.394 0 01-3.044-.77 8.889 8.889 0 01-2.416-1.54 7.676 7.676 0 01-1.645-2.205c-.42-.863-.676-1.843-.77-2.94h4.06c.14.747.42 1.377.84 1.89a5 5 0 001.506 1.19 7.265 7.265 0 001.89.665 11.68 11.68 0 001.994.175c.63 0 1.249-.047 1.855-.14a5.46 5.46 0 001.61-.56c.49-.28.887-.642 1.19-1.085.304-.467.456-1.038.456-1.715 0-.793-.234-1.4-.7-1.82-.444-.443-1.015-.782-1.716-1.015a10.488 10.488 0 00-2.24-.56 27.475 27.475 0 01-2.24-.42 20.935 20.935 0 01-3.08-.875 9.597 9.597 0 01-2.45-1.4 6.21 6.21 0 01-1.61-2.03c-.373-.793-.56-1.75-.56-2.87s.199-2.1.596-2.94c.42-.84.956-1.54 1.61-2.1a7.116 7.116 0 012.31-1.33 11.681 11.681 0 012.695-.665V9.39z" fill="#212121"/></svg>