<svg width="52" height="52" fill="none" xmlns="http://www.w3.org/2000/svg"><path d="M9.2 16.4A7.2 7.2 0 109.2 2a7.2 7.2 0 000 14.4z" stroke="#212121" stroke-width="3" stroke-linecap="round" stroke-linejoin="round"/><path d="M4.74 14.853A23.831 23.831 0 002.478 21.2" stroke="#212121" stroke-width="3" stroke-linecap="square" stroke-linejoin="round"/><path d="M14.155 3.412a1.5 1.5 0 101.396 2.656l-1.396-2.656zm7.344.538l1.47-.299-.597-2.94-1.47.299.597 2.94zM15.55 6.068a22.332 22.332 0 015.948-2.118l-.597-2.94a25.33 25.33 0 00-6.747 2.402l1.396 2.656z" fill="#212121"/><path d="M42.8 16.4a7.2 7.2 0 100-14.4 7.2 7.2 0 000 14.4z" stroke="#212121" stroke-width="3" stroke-linecap="round" stroke-linejoin="round"/><path d="M36.45 6.068a1.5 1.5 0 101.394-2.656L36.45 6.068zM31.097 1.01l-1.469-.3-.597 2.94 1.47.299.597-2.94zm6.746 2.402a25.333 25.333 0 00-6.746-2.402L30.5 3.95a22.333 22.333 0 015.948 2.118l1.395-2.656zm10.744 10.743a1.5 1.5 0 10-2.656 1.396l2.656-1.396zm-.538 7.344l.299 1.47 2.94-.597-.299-1.47-2.94.596zm-2.118-5.948a22.328 22.328 0 012.118 5.947l2.94-.596a25.33 25.33 0 00-2.402-6.747l-2.656 1.396z" fill="#212121"/><path d="M42.8 50a7.2 7.2 0 100-14.4 7.2 7.2 0 000 14.4z" stroke="#212121" stroke-width="3" stroke-linecap="round" stroke-linejoin="round"/><path d="M45.931 36.45a1.5 1.5 0 102.656 1.395L45.93 36.45zm5.058-5.352l.299-1.47-2.94-.596-.299 1.47 2.94.596zm-2.402 6.747a25.33 25.33 0 002.402-6.747l-2.94-.596a22.332 22.332 0 01-2.118 5.948l2.656 1.395zM37.844 48.587a1.5 1.5 0 10-1.395-2.655l1.395 2.655zm-7.343-.537l-1.47.298.597 2.94 1.47-.298-.597-2.94zm5.948-2.118a22.329 22.329 0 01-5.948 2.118l.597 2.94a25.331 25.331 0 006.746-2.403l-1.395-2.655z" fill="#212121"/><path d="M9.2 50a7.2 7.2 0 100-14.4 7.2 7.2 0 000 14.4z" stroke="#212121" stroke-width="3" stroke-linecap="round" stroke-linejoin="round"/><path d="M15.55 45.932a1.5 1.5 0 00-1.395 2.655l1.396-2.655zm5.352 5.058l1.47.298.597-2.94-1.47-.298-.597 2.94zm-6.747-2.403a25.326 25.326 0 006.747 2.403l.597-2.94a22.331 22.331 0 01-5.948-2.118l-1.396 2.655zM3.411 37.845a1.5 1.5 0 002.656-1.395l-2.656 1.395zm.538-7.343l-.298-1.47-2.94.596.298 1.47 2.94-.596zm2.118 5.948a22.333 22.333 0 01-2.118-5.948l-2.94.596a25.334 25.334 0 002.402 6.747l2.656-1.395zM24.5 33.2v1.5h3v-1.5h-3zm3-14.4v-1.5h-3v1.5h3zm-8.7 5.7h-1.5v3h1.5v-3zm14.4 3h1.5v-3h-1.5v3zm-5.7 5.7V18.8h-3v14.4h3zm-8.7-5.7h14.4v-3H18.8v3z" fill="#212121"/></svg>