<svg width="126" height="32" fill="none" xmlns="http://www.w3.org/2000/svg"><path d="M41.632 9.632h4.862v.893c0 .297 0 .595-.06.952-.059.298-.118.655-.237.952a6.016 6.016 0 01-.415.893 3.701 3.701 0 01-.533.714c-.415.417-.89.714-1.483.952-.533.238-1.186.357-1.897.357-.83 0-1.601-.119-2.194-.416-.593-.298-1.127-.655-1.542-1.13-.415-.477-.712-1.072-.949-1.727a8.589 8.589 0 01-.296-2.202c0-.773.118-1.547.296-2.202.178-.654.474-1.25.89-1.785.415-.476.89-.893 1.541-1.19.593-.298 1.364-.417 2.194-.417 1.186 0 2.194.298 2.906.833.712.536 1.245 1.25 1.482 2.143h-1.423c-.178-.536-.474-.953-1.008-1.31-.533-.297-1.126-.476-1.897-.476-.653 0-1.186.12-1.601.357-.475.238-.83.536-1.127.953-.297.416-.474.833-.652 1.368a7.716 7.716 0 00-.178 1.726c0 .595.06 1.19.237 1.726.119.536.356 1.012.652 1.369.297.417.653.714 1.127.952s1.008.357 1.66.357c1.068 0 1.898-.297 2.431-.892.297-.358.534-.655.653-1.072a3.97 3.97 0 00.178-1.25H41.69V9.633h-.06zm8.301 5.475H48.57V4.217h4.092a6.59 6.59 0 011.601.178c.474.12.89.298 1.245.595.356.238.593.595.771 1.071.178.417.297.953.297 1.607 0 .476-.06.833-.178 1.19a3.021 3.021 0 01-.534.953c-.237.238-.474.476-.77.654a4.59 4.59 0 01-.95.417l2.254 4.344h-1.483L52.78 11.06h-2.846v4.047zm0-5.296h2.313c.415 0 .77-.06 1.127-.12.355-.059.652-.178.948-.356.237-.179.475-.417.653-.655.177-.298.237-.655.237-1.13 0-.774-.237-1.31-.712-1.667-.474-.298-1.127-.476-1.957-.476h-2.609V9.81zm9.014 5.296h-1.424l4.033-10.89h1.897l4.032 10.89h-1.423l-.89-2.32h-5.395l-.83 2.32zm1.304-3.51h4.507l-2.254-6.19-2.253 6.19zm17.493 3.51V4.217H76.38v9.105l-5.692-9.105h-1.72v10.89h1.364V6.061l5.692 9.046h1.72zM89.07 7.43c.237.655.296 1.429.296 2.202 0 .833-.118 1.548-.356 2.202-.237.655-.533 1.25-.948 1.726-.415.476-.949.833-1.601 1.13a6.343 6.343 0 01-2.254.417h-3.854V4.217h3.854c.83 0 1.601.119 2.194.416.653.238 1.186.655 1.602 1.13.533.417.83 1.013 1.067 1.667zm-1.067 2.262c0-.655-.06-1.25-.238-1.726s-.356-.952-.711-1.31c-.297-.357-.712-.654-1.186-.892-.475-.238-1.008-.298-1.66-.298h-2.491v8.451h2.431c.534 0 1.068-.06 1.601-.238a2.861 2.861 0 001.305-.893c.355-.357.593-.833.711-1.368.178-.536.237-1.131.237-1.726zm10.436 3.511l1.72 1.964h-1.78l-.889-.952c-.415.416-.89.654-1.423.833-.534.178-1.067.238-1.66.238-.415 0-.89-.06-1.246-.179a3.008 3.008 0 01-1.067-.535 2.635 2.635 0 01-.712-.893 2.847 2.847 0 01-.296-1.31c0-.713.178-1.309.593-1.785s.949-.892 1.66-1.309c-.77-.774-1.186-1.547-1.186-2.5 0-.476.06-.833.237-1.19.178-.357.356-.595.594-.833.237-.238.533-.416.889-.535a3.553 3.553 0 011.186-.179c.712 0 1.364.238 1.838.655.474.416.712 1.011.712 1.785 0 .357-.06.655-.178.952-.119.298-.297.536-.474.833l-.712.715a3.536 3.536 0 01-.89.535l2.313 2.738c.178-.238.296-.536.415-.893s.178-.714.237-1.071h1.305a6.395 6.395 0 01-.356 1.607c-.296.476-.534.892-.83 1.309zm-4.922-6.487c0 .238.06.417.119.595.06.179.178.357.237.536.119.178.178.297.296.476.119.119.238.297.356.416.178-.119.356-.238.593-.357s.415-.297.593-.476c.178-.178.297-.357.475-.595.118-.178.177-.416.177-.654 0-.417-.118-.715-.355-.953s-.593-.357-1.008-.357c-.475 0-.83.12-1.068.357-.237.238-.356.595-.415 1.012zm3.261 6.487l-2.668-3.095c-.415.238-.77.536-1.126.893a1.965 1.965 0 00-.475 1.31c0 .297.06.535.178.773.119.238.297.417.474.536.178.119.415.238.712.297.237.06.534.12.77.12.357 0 .712-.06 1.068-.18.415-.118.771-.297 1.067-.654zm-52.834 10.95a4.577 4.577 0 01-.949.417l2.254 4.344h-1.483l-2.194-4.106h-2.728v4.106h-1.363v-10.95h4.091c.593 0 1.127.06 1.601.178.475.12.89.298 1.245.596.356.238.593.595.771 1.07.178.418.297.953.297 1.608 0 .476-.06.833-.178 1.19a3.021 3.021 0 01-.534.952c-.237.238-.533.417-.83.595zm-.119-1.666c.178-.298.238-.655.238-1.13 0-.774-.238-1.31-.712-1.667-.474-.298-1.127-.476-1.957-.476h-2.55v4.344h2.313c.415 0 .771-.06 1.127-.119.356-.06.652-.178.949-.357.237-.119.474-.357.593-.595zm13.105-1.31c.238.715.297 1.429.297 2.203 0 .773-.119 1.547-.297 2.202-.237.654-.533 1.25-.948 1.785a4.709 4.709 0 01-1.601 1.19c-.653.298-1.364.417-2.194.417-.83 0-1.601-.12-2.254-.417-.652-.297-1.186-.654-1.6-1.19a4.297 4.297 0 01-.95-1.785c-.237-.655-.296-1.429-.296-2.202 0-.774.118-1.548.296-2.202.238-.655.534-1.25.95-1.786a4.707 4.707 0 011.6-1.19c.653-.298 1.364-.417 2.254-.417.83 0 1.6.12 2.194.417.652.298 1.185.655 1.6 1.19.416.536.712 1.131.95 1.786zm-1.067 2.262c0-.595-.06-1.13-.237-1.666-.178-.536-.356-1.012-.712-1.369-.296-.417-.711-.714-1.186-.952-.474-.238-1.008-.357-1.66-.357-.652 0-1.186.119-1.66.357-.475.238-.89.535-1.186.952a6.004 6.004 0 00-.712 1.369c-.178.535-.237 1.071-.237 1.666s.06 1.13.237 1.666c.178.536.356 1.012.712 1.37.355.356.711.713 1.186.951.474.239 1.067.358 1.66.358.652 0 1.186-.12 1.66-.357.475-.238.83-.536 1.186-.953.297-.416.534-.833.652-1.369.238-.535.297-1.07.297-1.666zm12.868-2.261c.237.714.296 1.428.296 2.202 0 .773-.118 1.547-.296 2.202-.237.654-.534 1.25-.95 1.785a4.708 4.708 0 01-1.6 1.19c-.652.298-1.364.417-2.194.417-.83 0-1.601-.12-2.254-.417-.652-.297-1.185-.654-1.6-1.19a4.297 4.297 0 01-.95-1.785c-.236-.655-.296-1.429-.296-2.202 0-.774.119-1.548.297-2.202.237-.655.533-1.25.949-1.786a4.707 4.707 0 011.6-1.19c.653-.298 1.364-.417 2.254-.417.83 0 1.6.12 2.194.417.652.298 1.186.655 1.6 1.19.416.536.712 1.131.95 1.786zm-1.068 2.261c0-.595-.059-1.13-.237-1.666s-.356-1.012-.712-1.369c-.296-.417-.711-.714-1.185-.952-.475-.238-1.008-.357-1.66-.357-.653 0-1.187.119-1.661.357s-.89.535-1.186.952a6.004 6.004 0 00-.712 1.369c-.178.535-.237 1.071-.237 1.666s.06 1.13.237 1.666c.178.536.356 1.012.712 1.37.296.416.712.713 1.186.951.474.239 1.067.358 1.66.358.652 0 1.186-.12 1.66-.357.475-.238.83-.536 1.186-.953.297-.416.534-.833.653-1.369.237-.535.296-1.07.296-1.666zm9.25-.238c-.236-.119-.533-.178-.83-.238l-.889-.178c-.296-.06-.593-.12-.83-.179-.297-.06-.534-.179-.77-.238-.297-.12-.594-.298-.772-.595-.237-.238-.296-.595-.296-1.012 0-.357.059-.595.237-.833s.356-.417.593-.536c.237-.119.474-.238.77-.297.297-.06.594-.06.89-.06.297 0 .593 0 .83.06.297.06.534.178.712.297.237.12.415.298.534.536.177.238.237.476.296.774h1.305c-.06-.655-.178-1.19-.534-1.607-.297-.417-.712-.714-1.127-.953-.296-.119-.593-.238-.948-.297-.356-.06-.712-.12-1.127-.12-.474 0-.949.06-1.423.18a3.59 3.59 0 00-1.186.535 2.75 2.75 0 00-.89.952 2.835 2.835 0 00-.355 1.429c0 .595.118 1.13.415 1.547.296.417.593.714 1.008.893.237.119.533.238.83.357.296.119.593.178.949.238.296.06.652.119.948.178.297.06.593.12.89.238.415.12.77.298 1.008.536.237.238.356.595.356 1.071 0 .298-.06.595-.178.833a1.166 1.166 0 01-.534.536c-.237.119-.474.238-.77.298-.297.06-.594.119-.89.119-.297 0-.653 0-.949-.06-.296-.06-.652-.119-.89-.297a1.619 1.619 0 01-.711-.536c-.237-.238-.356-.536-.474-.893h-1.424c.12.536.297 1.012.594 1.369.296.357.592.714 1.007.952.416.238.83.417 1.305.536.474.119.949.178 1.483.178a5.95 5.95 0 001.482-.178c.474-.12.89-.298 1.245-.536.356-.238.653-.595.83-1.011.238-.417.297-.893.297-1.548 0-.654-.178-1.19-.534-1.607a4.878 4.878 0 00-1.482-.833zm4.33 5.654h7.293v-1.19h-5.989v-3.571h5.396v-1.25h-5.396v-3.69h5.99v-1.19h-7.294v10.89zm13.282-1.13l-3.558-9.761h-1.482l4.091 10.89h1.957l4.033-10.89h-1.424l-3.617 9.76zm6.582 1.13h7.294v-1.19h-5.989v-3.571h5.396v-1.25h-5.396v-3.69h5.989v-1.19h-7.294v10.89zm10.733-10.891h-1.364v10.89h7.294v-1.19h-5.989v-9.7h.059zm5.752 0v1.19h3.499v9.7h1.364v-9.7h3.498v-1.19h-8.361zM14.414 7.252l-1.601-6.07-1.423.356 1.6 6.07 1.424-.356zm-6.76 5.772l-6.049-1.606-.355 1.428 6.048 1.607.356-1.429zm1.067-2.082L3.325 7.787l-.712 1.25 5.397 3.214.711-1.31zm1.542-1.726L5.816 4.752 4.748 5.823l4.448 4.464 1.067-1.071zm1.957-1.25L9.077 2.55l-1.245.714 3.143 5.416 1.245-.714zm8.776.773l3.143-5.415-1.246-.714-3.142 5.415 1.245.714zm-.415-7.141l-1.423-.357-1.602 6.07 1.424.357 1.6-6.07zm3.38 10.653l5.396-3.154-.712-1.25L23.25 11l.712 1.25zm.711 2.202l6.049-1.607-.356-1.428-6.048 1.606.355 1.429zm-1.957-4.166l4.448-4.464-1.068-1.07-4.447 4.463 1.067 1.07zM16.726.884h-1.482v6.308h1.482V.884zm3.025 23.15l3.142 5.416 1.246-.714-3.143-5.416-1.245.714zm-4.507 7.082h1.482v-6.308h-1.482v6.308zm2.313-6.427l1.6 6.07 1.424-.357-1.601-6.07-1.424.357zm4.15-1.904l4.448 4.463 1.067-1.071-4.447-4.464-1.068 1.072zm1.542-1.726l5.396 3.154.712-1.25-5.396-3.154-.712 1.25zm1.542-4.345h6.285v-1.488h-6.285v1.488zm-.474 2.262l6.048 1.607.356-1.429-6.049-1.607-.355 1.429zM7.298 17.547L1.25 19.214l.355 1.428 6.049-1.607-.356-1.488zm.712 2.202l-5.397 3.155.712 1.25 5.396-3.155-.711-1.25zm-.83-4.463H.952v1.488H7.24v-1.488h-.06zm2.075 6.427l-4.448 4.464 1.068 1.071 4.447-4.463-1.067-1.072zm2.135 8.69l1.423.356 1.6-6.07-1.422-.357-1.601 6.07zm-.415-7.142l-3.143 5.415 1.245.715 3.143-5.416-1.245-.714zm7.293-10.177a.66.66 0 01.652.655v1.963c0 1.786-1.482 3.274-3.261 3.274h-1.957a.66.66 0 01-.652-.655v-1.964c0-1.785 1.482-3.273 3.261-3.273h1.957zm-.83 1.428h-2.906v2.916h2.906v-2.916z" fill="#fff"/></svg>