<svg width="201" height="201" fill="none" xmlns="http://www.w3.org/2000/svg"><animateTransform attributeName="transform" type="rotate" values="0;45" keyTimes="0;1" dur="0.819672131147541s" repeatCount="indefinite"/><path d="M4.942 69.696L2.414 79.13l39.983 10.714 2.528-9.435L4.942 69.696zM79.443 2.427l-9.435 2.528 10.713 39.984 9.435-2.528L79.443 2.427zm-63.307 43.63l-4.884 8.459L47.1 75.213l4.884-8.458-35.848-20.698zm16.939-19.895l-6.906 6.908 29.275 29.266 6.905-6.907-29.274-29.267zm21.801-15.048L46.417 16 67.12 51.847l8.459-4.885-20.702-35.848zM105.463.218h-9.768v41.395h9.768V.218zm90.051 69.268l-39.983 10.713 2.527 9.434 39.984-10.713-2.528-9.434zM184.35 45.87l-35.848 20.7 4.885 8.459 35.848-20.702-4.885-8.459zM121.401 2.765l-10.75 39.976 9.432 2.537 10.75-39.976-9.432-2.537zm24.739 8.42l-20.698 35.849 8.459 4.883 20.697-35.848-8.458-4.884zm21.377 14.91l-29.27 29.27 6.906 6.907 29.271-29.27-6.907-6.907zM120.386 155.46l-9.434 2.528 10.713 39.984 9.434-2.528-10.713-39.984zm24.854-17.308l-6.907 6.906 29.271 29.271 6.906-6.907-29.27-29.27zm-39.777 20.671h-9.768v41.395h9.768v-41.395zm28.508-10.465l-8.459 4.884 20.698 35.848 8.459-4.883-20.698-35.849zm19.281-23.269l-4.885 8.459 35.849 20.702 4.884-8.459-35.848-20.702zm47.096-29.523h-41.395v9.767h41.395v-9.767zm-42.509 15.022l-2.528 9.434 39.984 10.713 2.528-9.434-39.984-10.713zM55.588 138.216l-29.275 29.271 6.907 6.908 29.274-29.271-6.906-6.908zm-8.278-12.783l-35.848 20.698 4.884 8.459 35.848-20.698-4.883-8.459zm-4.71-14.551L2.617 121.595l2.528 9.434 39.983-10.713-2.528-9.434zm-.857-15.316H.348v9.767h41.395v-9.767zm38.77 60.11l-10.75 39.976 9.432 2.536 10.75-39.975-9.432-2.537zm-13.637-7.035l-20.702 35.848 8.459 4.885 20.701-35.849-8.458-4.884z" fill="#F0573C"/></svg>